<svg xmlns="http://www.w3.org/2000/svg" width="267.9" height="376.8" viewBox="0 0 267.9 376.8"><path fill="#fff" stroke="#000" stroke-miterlimit="10" stroke-width="3" d="M112.2 313.1s28.4 26.1 60.1 0l1.7-5.9-27.8-6.9z"/><path d="M122.5 282.9c-12.9-1.6-24 8.2-35.3 14.6a75 75 0 0 1-57 6.6c12.4 13.2 30.2 20.6 48.3 21.7s36.1-3.7 52.1-12.1c4.5-2.4 9.1-5.4 11.1-10.1 4.4-10.5-10.7-19.7-19.2-20.7z"/><path d="M158 281c11.9-1.5 22.1 7.9 32.6 14.1a66.4 66.4 0 0 0 52.6 6.3c-11.4 12.7-27.9 19.9-44.5 21s-33.4-3.6-48.2-11.8c-4.1-2.3-8.4-5.1-10.2-9.6-4.1-10.2 9.9-19 17.7-20z"/><path fill="#eae0dc" d="M5.8 88c14.3-33 50.6-29.6 50.6-29.6 7.3-1.1 17-23.3 21-28.6 10.1-13.1 23.4-24.2 39.7-28.3 51-12.8 75.4 60.1 75.4 60.1a7.5 7.5 0 0 1 1.5 0c41.3-2.5 76.5 39.5 57.2 75.3s-60.3 34.6-60.3 34.6l.3 78.1c-60.3-26.4-117.8-2.1-117.8-2.1l3.4-69.4S-24.9 158.2 5.8 88z"/><circle cx="107.1" cy="268.1" r="7.8"/><circle cx="178.3" cy="268.6" r="7.3"/><path d="M82.6 179l2 8.1s5.7-14.2 5.4-14.2c-14.9.9-32.7-3.8-32.7-3.8-50.5-17.2-48-57-41.9-74.3a42 42 0 0 1 11-17.1c1-1.1 2.1-2.1 3.1-3.1 3.8-3.9 18.2-15 54.5-9a1.1 1.1 0 0 0 .6-2.1l-.8-.3C20.5 45.9 9.1 101.4 9.1 101.4-.1 173.3 82.6 179 82.6 179m116.7-5.3s35.1-3.4 54.4-24.7c15.1-16.8 14-42.4-1.8-58.6-12.4-12.8-34.5-26.2-70.8-21.4a1 1 0 0 1-.4-2c17.7-4.4 49.4-6.9 74.5 20.5 18.2 19.8 16.8 50.7-3.5 68.2-10.2 8.8-25.6 16.5-48.9 20.8l.6 77.6M78 49.8a1.2 1.2 0 0 1-2.1-1.1c6.9-15.1 22.7-39.2 54.8-42.6 0 0 43.3-6.7 63.8 44.8a.8.8 0 0 1-1.4.7c-8.8-16.4-27.9-42.2-61-42 0 0-27.4-1.2-54.1 40.2z"/><path fill="#ea5744" d="M151.3 353.3s-8.6-4.7-15.1-.3c0 0-35.2-21.5-45.5 13.5 0 0 19.3 20.4 46.4 2.2 0 0 8.9 3.3 13.4-.6z"/><path fill="#ea5744" d="M136.8 353.9s9.2-4.8 16.1-.3c0 0 37.5-21.5 48.5 13.4 0 0-20.6 20.4-49.4 2.3 0 0-9.6 3.3-14.3-.6z"/><path d="M174.4 244.8s-28.7-9.5-89.3-.9L90 173l-7.4 1.1-3.2 79.7s32.5-18.4 94.9-8.9"/><path fill="none" stroke="#000" stroke-miterlimit="10" d="M108 185.8l-2.6 46.8m28.9-46.2l-.9 46.9m25.2-46.5l1 46.8m24.6-45.8l.9 46.8"/><path d="M200.4 177.6a310.6 310.6 0 0 1-55.2 1.1.6.6 0 0 1 0-1.2c14.6 0 39.5-.9 64.8-5.7l-8.9 4.1z"/></svg>