<svg xmlns="http://www.w3.org/2000/svg" width="267.9" height="376.8" viewBox="0 0 267.9 376.8"><g id="Layer_4" data-name="Layer 4"><path d="M112.2,313.1s28.4,26.1,60.1,0l1.7-5.9-27.8-6.9Z" fill="#fff" stroke="#000" stroke-miterlimit="10" stroke-width="3"/></g><g id="Layer_3" data-name="Layer 3"><path d="M122.5,282.9c-12.9-1.6-24,8.2-35.3,14.6a75,75,0,0,1-57,6.6c12.4,13.2,30.2,20.6,48.3,21.7s36.1-3.7,52.1-12.1c4.5-2.4,9.1-5.4,11.1-10.1C146.1,293.1,131,283.9,122.5,282.9Z"/><path d="M158,281c11.9-1.5,22.1,7.9,32.6,14.1a66.4,66.4,0,0,0,52.6,6.3c-11.4,12.7-27.9,19.9-44.5,21s-33.4-3.6-48.2-11.8c-4.1-2.3-8.4-5.1-10.2-9.6C136.2,290.8,150.2,282,158,281Z"/></g><g id="Layer_2" data-name="Layer 2"><path d="M5.8,88C20.1,55,56.4,58.4,56.4,58.4c7.3-1.1,17-23.3,21-28.6C87.5,16.7,100.8,5.6,117.1,1.5c51-12.8,75.4,60.1,75.4,60.1a7.5,7.5,0,0,1,1.5,0c41.3-2.5,76.5,39.5,57.2,75.3s-60.3,34.6-60.3,34.6l.3,78.1c-60.3-26.4-117.8-2.1-117.8-2.1l3.4-69.4S-24.9,158.2,5.8,88Z" fill="#eae0dc"/><circle cx="107.1" cy="268.1" r="7.8"/><circle cx="178.3" cy="268.6" r="7.3"/><path d="M82.6,179l2,8.1s5.7-14.2,5.4-14.2c-14.9.9-32.7-3.8-32.7-3.8-50.5-17.2-48-57-41.9-74.3a42,42,0,0,1,11-17.1c1-1.1,2.1-2.1,3.1-3.1,3.8-3.9,18.2-15,54.5-9a1.1,1.1,0,0,0,.6-2.1l-.8-.3C20.5,45.9,9.1,101.4,9.1,101.4-.1,173.3,82.6,179,82.6,179"/><path d="M199.3,173.7s35.1-3.4,54.4-24.7c15.1-16.8,14-42.4-1.8-58.6C239.5,77.6,217.4,64.2,181.1,69a1,1,0,0,1-.4-2c17.7-4.4,49.4-6.9,74.5,20.5,18.2,19.8,16.8,50.7-3.5,68.2-10.2,8.8-25.6,16.5-48.9,20.8l.6,77.6"/><path d="M78,49.8a1.2,1.2,0,0,1-2.1-1.1C82.8,33.6,98.6,9.5,130.7,6.1c0,0,43.3-6.7,63.8,44.8a.8.8,0,0,1-1.4.7c-8.8-16.4-27.9-42.2-61-42C132.1,9.6,104.7,8.4,78,49.8Z"/></g><g id="Layer_1" data-name="Layer 1"><path d="M151.3,353.3s-8.6-4.7-15.1-.3c0,0-35.2-21.5-45.5,13.5,0,0,19.3,20.4,46.4,2.2,0,0,8.9,3.3,13.4-.6Z" fill="#ea5744"/><path d="M136.8,353.9s9.2-4.8,16.1-.3c0,0,37.5-21.5,48.5,13.4,0,0-20.6,20.4-49.4,2.3,0,0-9.6,3.3-14.3-.6Z" fill="#ea5744"/><path d="M174.4,244.8s-28.7-9.5-89.3-.9L90,173l-7.4,1.1-3.2,79.7s32.5-18.4,94.9-8.9"/><line x1="108" y1="185.8" x2="105.4" y2="232.6" fill="none" stroke="#000" stroke-miterlimit="10"/><line x1="134.3" y1="186.4" x2="133.4" y2="233.3" fill="none" stroke="#000" stroke-miterlimit="10"/><line x1="158.6" y1="186.8" x2="159.6" y2="233.6" fill="none" stroke="#000" stroke-miterlimit="10"/><line x1="184.2" y1="187.8" x2="185.1" y2="234.6" fill="none" stroke="#000" stroke-miterlimit="10"/><path d="M200.4,177.6a310.6,310.6,0,0,1-55.2,1.1.6.6,0,0,1,0-1.2c14.6,0,39.5-.9,64.8-5.7l-8.9,4.1Z"/></g></svg>