<svg xmlns="http://www.w3.org/2000/svg" width="11.9" height="16.9" viewBox="0 0 11.9 16.9"><path fill="#fff" stroke="#000" stroke-miterlimit="10" stroke-width=".13" d="M5 14.1a2 2 0 0 0 2.7 0v-.3l-1.2-.3z"/><path d="M5.5 12.7c-.6-.1-1.1.4-1.6.7a3.7 3.7 0 0 1-2.5.3 3.5 3.5 0 0 0 2.2 1 4.3 4.3 0 0 0 2.3-.5.8.8 0 0 0 .5-.5c.1-.5-.6-.9-.9-1z"/><path d="M7 12.6c.5-.1 1 .4 1.5.6a3.1 3.1 0 0 0 2.3.3 2.5 2.5 0 0 1-2 .9 5 5 0 0 1-2.1-.5 1 1 0 0 1-.5-.4c-.1-.4.5-.8.8-.9z"/><path fill="#eae0dc" d="M.3 4a2.2 2.2 0 0 1 2.3-1.3c.3 0 .8-1 .9-1.3A3.4 3.4 0 0 1 5.3.1c2.3-.6 3.4 2.7 3.4 2.7h.1c1.8-.1 3.4 1.8 2.6 3.4a3.1 3.1 0 0 1-2.7 1.5v3.5a8 8 0 0 0-5.4-.1L3.5 8C3.4 8-1.1 7.2.3 4z"/><circle cx="4.8" cy="12.1" r=".3"/><circle cx="7.9" cy="12.1" r=".3"/><path d="M3.7 8.1v.4s.3-.6.2-.6l-1.4-.2A2.6 2.6 0 0 1 .7 4.3a1.8 1.8 0 0 1 .5-.7h.1c.2-.2.8-.7 2.4-.4h.1C.9 2.1.4 4.6.4 4.6 0 7.8 3.7 8.1 3.7 8.1m5.2-.3a4.4 4.4 0 0 0 2.4-1.1 1.9 1.9 0 0 0-.1-2.6 3.5 3.5 0 0 0-3.2-1h-.1a3.3 3.3 0 0 1 3.3.9 2.1 2.1 0 0 1-.2 3c-.2.5-.9.9-2 1.1v3.5M3.5 2.3A2.6 2.6 0 0 1 5.8.4a2.7 2.7 0 0 1 2.8 2A3.2 3.2 0 0 0 5.9.5S4.7.5 3.5 2.3z"/><path fill="#ea5744" d="M6.7 15.9a.8.8 0 0 0-.7 0s-1.6-1-2 .6a1.6 1.6 0 0 0 2.1.1h.6z"/><path fill="#ea5744" d="M6.1 15.9a.8.8 0 0 1 .7 0s1.7-1 2.2.6a1.8 1.8 0 0 1-2.2.1h-.6z"/><path d="M7.8 11a10 10 0 0 0-4 0L4 7.8h-.3v3.6c-.1 0 1.4-.8 4.2-.4"/><path fill="none" stroke="#000" stroke-miterlimit="10" stroke-width=".04" d="M4.8 8.4v2.1M6 8.4v2.1m1.1-2.1v2.1m1.1-2v2.1"/><path d="M8.9 8H6.5a10.9 10.9 0 0 0 2.9-.3z"/></svg>